<svg xmlns="http://www.w3.org/2000/svg" width="255.163" height="96.47" viewBox="0 0 255.163 96.47">
  <g id="logo" transform="translate(1 1)">
    <g id="Group_2069" data-name="Group 2069">
      <rect id="canvas_background" width="229" height="64" transform="translate(-1 -1)" fill="none"/>
    </g>
    <g id="Group_2070" data-name="Group 2070">
      <g id="svg_16">
        <g id="svg_24">
          <g id="svg_25">
            <rect id="svg_26" width="60" height="60" transform="translate(0.837 2)" fill="rgba(33,150,243,0)"/>
            <g id="svg_27">
              <g id="svg_28">
                <g id="svg_29">
                  <path id="svg_30" d="M50.367,95.47,10.806,73.052l-.366-45.47L49.634,4.531,89.195,26.948l.365,45.469L50.367,95.47ZM13.792,71.3,50.338,92.005,86.547,70.71,86.209,28.7,49.663,8l-36.21,21.3L13.792,71.3Z" fill="#fff"/>
                  <path id="svg_31" d="M50.326,90.426,15.153,70.5l-.326-40.426,34.848-20.5.251.142,34.921,19.79,0,.289.323,40.137-.248.146-34.6,20.349ZM16.148,69.909,50.316,89.271,84.169,69.362,83.852,30.09,49.685,10.728,15.832,30.638l.316,39.271Z" fill="#fff"/>
                </g>
                <g id="svg_32" transform="translate(22.39 22.392)">
                  <path id="svg_33" d="M30.282,55.191a21.129,21.129,0,0,1-4.643-.383c-.437-.087-.527-.206-.361-.657.9-2.3,1.748-4.622,2.618-6.936.311-.827.621-1.654.946-2.477a.885.885,0,0,0,0-.679q-1.513-4-3.011-8a.383.383,0,0,0-.5-.274q-4.224.7-8.452,1.379a.978.978,0,0,0-.617.394q-3.055,3.769-6.138,7.539l-.1.116c-.462.531-.52.538-.978-.022a28.054,28.054,0,0,1-2.166-3.018A26.094,26.094,0,0,1,4.47,37.225c-.22-.614-.191-.693.448-.794q4.77-.776,9.543-1.52a1.61,1.61,0,0,0,1.116-.635q2.48-3.083,5-6.109a.765.765,0,0,0,0-1.152c-1.748-2.1-3.459-4.2-5.163-6.311a1.166,1.166,0,0,0-.794-.361L5.264,18.857c-1-.155-1.043-.184-.664-1.127A27.318,27.318,0,0,1,9.2,9.914c.311-.361.5-.314.773.018,1.386,1.715,2.78,3.416,4.174,5.127q1.083,1.321,2.137,2.647a1.011,1.011,0,0,0,.686.361c2.737.44,5.474.881,8.207,1.34.379.065.567,0,.722-.383q1.426-3.856,2.917-7.723a1.2,1.2,0,0,0,0-.913c-1.2-3.134-2.379-6.275-3.575-9.409C25.126.671,25.17.53,25.5.443A12.5,12.5,0,0,1,28.127.082a28.165,28.165,0,0,1,6.838.282c.755.148.722.144.462.852-.859,2.264-1.7,4.531-2.556,6.8-.307.812-.61,1.628-.928,2.434a.953.953,0,0,0-.025.722q1.524,4,3.022,7.972a.408.408,0,0,0,.531.3c2.8-.466,5.6-.917,8.4-1.372A.975.975,0,0,0,44.5,17.7q2.188-2.708,4.383-5.416c.654-.8,1.318-1.592,1.957-2.408.249-.325.437-.361.7-.029a27.44,27.44,0,0,1,4.73,8.146c.224.614.2.679-.451.787q-4.744.776-9.492,1.524a1.7,1.7,0,0,0-1.166.661q-2.459,3.069-4.972,6.091a.722.722,0,0,0,0,1.108c1.542,1.841,3.094,3.679,4.56,5.582A2.888,2.888,0,0,0,46.859,35c2.166.267,4.289.672,6.43,1.018.874.144,1.748.292,2.621.422.426.065.567.235.4.675a27.694,27.694,0,0,1-2.592,5.246,25.232,25.232,0,0,1-2.188,2.986c-.274.318-.437.307-.693,0-1.372-1.7-2.762-3.394-4.141-5.087-.722-.9-1.444-1.805-2.166-2.686a1.083,1.083,0,0,0-.722-.422c-2.755-.44-5.506-.881-8.254-1.347-.408-.072-.56.058-.693.415q-1.386,3.7-2.816,7.395a1.845,1.845,0,0,0-.036,1.444c1.184,3.051,2.325,6.116,3.5,9.171.134.361.069.477-.278.556a17.963,17.963,0,0,1-3.972.422c-.282-.018-.585-.022-.975-.022Zm.108-22.075h2.7a.722.722,0,0,0,.722-.4q1.318-2.3,2.665-4.585a.953.953,0,0,0,0-1.083q-1.347-2.271-2.654-4.571a.722.722,0,0,0-.722-.379H27.647a.722.722,0,0,0-.679.379q-1.321,2.3-2.665,4.585a.946.946,0,0,0,0,1.083q1.354,2.282,2.665,4.585a.722.722,0,0,0,.722.4C28.589,33.1,29.5,33.116,30.391,33.116Z" transform="translate(-2.777)" fill="#fff"/>
                  <path id="svg_34" d="M42.132,30.9V25.789c0-.672.065-.722.628-.361,2.04,1.235,4.084,2.47,6.116,3.723a.856.856,0,0,0,1.047-.04c1.415-.913,2.849-1.805,4.279-2.7.545-.339.6-.307.722.339a20.281,20.281,0,0,1,.285,3.939,25.274,25.274,0,0,1-.22,4.145c-.09.545-.144.585-.607.3-1.556-.942-3.12-1.874-4.672-2.823a.538.538,0,0,0-.639,0q-3.2,2.015-6.409,4.011c-.137.087-.271.26-.44.181s-.094-.329-.094-.5V30.9h0ZM14.883,19.821c.188-2.069,0-4.141.162-6.207a.823.823,0,0,0-.524-.9c-1.491-.744-2.964-1.535-4.441-2.314-.469-.249-.477-.361-.051-.722a27.65,27.65,0,0,1,6.961-4.192c.43-.181.513-.119.505.386-.029,1.737-.054,3.473-.1,5.206a.874.874,0,0,0,.534.91c2.166,1.13,4.333,2.282,6.517,3.426.419.224.422.3,0,.538q-3.369,1.961-6.752,3.91L15.4,21.189c-.394.227-.505.177-.516-.267-.007-.368,0-.737,0-1.1Zm.311,20.927c.076.04.162.083.249.134l9.11,5.268c.112.065.274.09.289.246s-.173.224-.3.292c-2.166,1.181-4.293,2.369-6.449,3.538a.805.805,0,0,0-.477.838c.076,1.683.134,3.369.191,5.055.022.646-.036.686-.643.433a28.524,28.524,0,0,1-6.911-4.091c-.343-.278-.217-.408.079-.57,1.488-.82,2.972-1.661,4.47-2.462a.722.722,0,0,0,.44-.82c-.087-1.163-.108-2.332-.144-3.5-.043-1.3-.079-2.6-.108-3.9C14.973,41.036,14.915,40.82,15.193,40.748ZM12.7,30.62v5.16c0,.144.069.318-.1.408s-.253-.047-.361-.112q-3.2-1.921-6.387-3.86a.617.617,0,0,0-.765,0c-1.444.924-2.921,1.805-4.372,2.737-.311.195-.426.162-.473-.213a29.755,29.755,0,0,1,.029-7.792c.083-.6.213-.661.722-.361,1.246.755,2.48,1.491,3.7,2.275a1.213,1.213,0,0,0,1.527,0c1.971-1.289,3.972-2.527,5.983-3.755.466-.289.524-.256.527.3v5.21l-.029,0ZM40.348,42.7c-.188,2.065,0,4.138-.166,6.2a.769.769,0,0,0,.444.82c1.376.722,2.74,1.444,4.105,2.192.5.267.5.361.079.682a28.325,28.325,0,0,1-6.5,3.845c-.5.213-.6.159-.589-.379.022-1.553.047-3.1.1-4.654a.812.812,0,0,0-.524-.848q-3.25-1.7-6.445-3.437c-.52-.282-.513-.361,0-.668q4.47-2.571,8.943-5.134c.448-.256.527-.206.534.329l.014,1.051Zm-2.6-37.409L38,5.385a28.383,28.383,0,0,1,6.449,3.7c.5.383.484.437-.058.722-1.332.722-2.661,1.466-4,2.184a.661.661,0,0,0-.39.773c.1,1.043.058,2.1.123,3.148.087,1.412.1,2.831.123,4.25,0,.574-.058.617-.545.336-1.982-1.141-3.972-2.293-5.932-3.437-1-.574-2-1.13-3-1.711-.513-.3-.5-.4,0-.679,2.137-1.17,4.268-2.347,6.412-3.5a.722.722,0,0,0,.433-.751c-.069-1.4-.119-2.8-.173-4.2v-.7a.235.235,0,0,1,.3-.227Z" transform="translate(0 -3.375)" fill="#fff"/>
                </g>
              </g>
            </g>
          </g>
          <g id="svg_35">
            <g id="svg_36">
              <g id="svg_37">
                <path id="svg_38" d="M67.833,20.952h4.71v22.1h-4.71Zm12.89,22.1L72.7,31.882l8.45-10.93h6.2l-9.24,10.93,8.81,11.17h-6.2Zm15.21-3.45h4.18V26.912h4.44v16.14H95.8a11.733,11.733,0,0,1-2.92-.28,4.393,4.393,0,0,1-1.82-1.01h0q-1.69-1.53-1.69-4.94h0v-9.91h4.41v10.37a2.383,2.383,0,0,0,.58,1.71,2.064,2.064,0,0,0,1.57.61h0Zm17.4-18.65v5.96h3.91a9.535,9.535,0,0,1,4.21.8h0a6.558,6.558,0,0,1,3.21,3.34h0a9.629,9.629,0,0,1,.7,3.72h0q0,4.9-3.55,7.09h0a7.208,7.208,0,0,1-2.32.94,17.448,17.448,0,0,1-3.38.25h-7.22v-22.1Zm3.28,9.41h-3.28V39.6h3.28a3.84,3.84,0,0,0,3.15-1.29h0a5.458,5.458,0,0,0,1.06-3.41h0q0-4.54-4.21-4.54h0Zm15.87,2.88h9.35v3.45h-9.35a2.967,2.967,0,0,0,1.03,2.25,5.022,5.022,0,0,0,2.92.66h5.4v3.45h-5.9a11.547,11.547,0,0,1-3.13-.35,7.062,7.062,0,0,1-2.27-1.14h0a8.067,8.067,0,0,1-2.95-6.79h0a8.579,8.579,0,0,1,1.56-5.11h0a5.984,5.984,0,0,1,2.55-2.12,10.176,10.176,0,0,1,3.91-.63h6.23v3.45h-5.9a4.047,4.047,0,0,0-2.55.61,3.323,3.323,0,0,0-.9,2.27h0Zm21.18.63v-3.94h10.83v13.12h-9.87a17.292,17.292,0,0,1-4.06-.38,7.212,7.212,0,0,1-2.73-1.34h0q-3.48-2.69-3.48-9.25h0a14.03,14.03,0,0,1,1.65-7.12h0a7.331,7.331,0,0,1,3.35-3.05,13.432,13.432,0,0,1,5.5-.96h9.64v3.94h-9.11a5.948,5.948,0,0,0-4.27,1.29h0q-1.59,1.53-1.59,5.47h0a14.982,14.982,0,0,0,.41,3.65,5.527,5.527,0,0,0,1.14,2.41h0a3.639,3.639,0,0,0,1.74,1.07,9.746,9.746,0,0,0,2.74.33h4.27v-5.24h-6.16Zm18.52-.63h9.35v3.45h-9.35a2.923,2.923,0,0,0,1.03,2.25,4.972,4.972,0,0,0,2.91.66h5.41v3.45h-5.9a11.547,11.547,0,0,1-3.13-.35,7.062,7.062,0,0,1-2.27-1.14h0a8.067,8.067,0,0,1-2.95-6.79h0a8.618,8.618,0,0,1,1.55-5.11h0a6.048,6.048,0,0,1,2.56-2.12,10.176,10.176,0,0,1,3.91-.63h6.23v3.45h-5.9a4.047,4.047,0,0,0-2.55.61,3.323,3.323,0,0,0-.9,2.27h0Zm12.96,9.81V26.912h16.3a13.119,13.119,0,0,1,3.38.33,4.422,4.422,0,0,1,1.96,1.16h0a6.258,6.258,0,0,1,1.45,4.38h0v10.27h-4.44v-9.58a8.815,8.815,0,0,0-.1-1.62,1.6,1.6,0,0,0-.46-.83h0a2.923,2.923,0,0,0-2.09-.66h-2.35v12.69h-4.44V30.362h-4.77v12.69h-4.44Zm31.78-16.14h9.47v3.45h-7.85a6.693,6.693,0,0,0-1.72.13h0a1.2,1.2,0,0,0-.77,1.29h0a1.494,1.494,0,0,0,.73,1.33h0a5.172,5.172,0,0,0,2.16.26h2.62a6.631,6.631,0,0,1,3.97,1.06h0a4.1,4.1,0,0,1,1.63,3.52h0a5.559,5.559,0,0,1-1,3.21h0a3.508,3.508,0,0,1-1.77,1.53,11.894,11.894,0,0,1-3.5.36h-9.18V39.6h7.92q1.46,0,1.99-.03h0a1.21,1.21,0,0,0,1.19-1.36h0a1.366,1.366,0,0,0-.79-1.36h0a5.487,5.487,0,0,0-1.92-.2h-2.69a11.745,11.745,0,0,1-2.43-.19,4.372,4.372,0,0,1-1.58-.73h0a4.248,4.248,0,0,1-1.4-1.74,5.518,5.518,0,0,1-.52-2.37h0a4.7,4.7,0,0,1,1.76-3.85h0a5.963,5.963,0,0,1,3.68-.86h0Z" transform="translate(27 18)" fill="#fff"/>
              </g>
            </g>
          </g>
        </g>
      </g>
    </g>
  </g>
</svg>
