<svg xmlns="http://www.w3.org/2000/svg" width="470.207" height="406.773" viewBox="0 0 470.207 406.773">
  <g id="Group_2066" data-name="Group 2066" transform="translate(-15853.508 -9891.35)">
    <path id="Path_4217" data-name="Path 4217" d="M47793.848,34024.414l-227.656,391.82h58.758l198.129-341.531Z" transform="translate(-31703.996 -24123.111)" fill="none" stroke="#fff" stroke-width="10"/>
    <path id="Path_4218" data-name="Path 4218" d="M47802.184,34080.781l137.531,237h-274.676Z" transform="translate(-31668.742 -24103.008)" fill="none" stroke="#fff" stroke-width="10"/>
    <path id="Path_4220" data-name="Path 4220" d="M47662.129,34274.2l-31.113,52.867h364.9l-30.648-52.867Z" transform="translate(-31680.883 -24034.018)" fill="none" stroke="#fff" stroke-width="10"/>
    <path id="Path_4221" data-name="Path 4221" d="M11379.875,9812.276l23.355,40.264-195.144,336.571h-47.158Z" transform="translate(4710 99)" fill="#313671" opacity="0.65"/>
    <path id="Path_4222" data-name="Path 4222" d="M11294.989,10110.792l257.3-.009-128.843-221.923Z" transform="translate(4710 99)" fill="#313671" opacity="0.65"/>
    <path id="Path_4223" data-name="Path 4223" d="M11274.405,10147.173l-24.463,42.138,346.363.095-24.249-42.232Z" transform="translate(4709.502 98.391)" fill="#313671" opacity="0.65"/>
    <path id="Path_4219" data-name="Path 4219" d="M47778.063,34159.125l-44.859,76.73h89.1Z" transform="translate(-31644.438 -24075.066)" fill="none" stroke="#fff" stroke-width="10"/>
  </g>
</svg>
