<svg width="145" height="32" viewBox="0 0 145 32" fill="none" xmlns="http://www.w3.org/2000/svg">
<path d="M42.484 9.87075C44.7116 9.87075 46.7801 10.6668 48.2121 12.0996C48.8486 10.5076 49.6442 9.07473 50.5989 7.8011C48.3713 6.04985 45.5072 4.93542 42.484 4.93542C35.1646 4.93542 29.2773 10.9852 29.2773 18.4678C29.2773 25.9504 35.1646 32.0001 42.484 32.0001C45.5072 32.0001 48.3713 30.8857 50.5989 29.1344C49.6442 27.8608 48.8486 26.428 48.2121 24.8359C46.7801 26.2688 44.7116 27.0648 42.484 27.0648C37.8696 27.0648 34.0508 23.2439 34.0508 18.4678C34.0508 13.6916 37.8696 9.87075 42.484 9.87075Z" fill="#26A3DD"/>
<path d="M15.116 -0.00012207C14.3204 -0.00012207 13.5249 0.47749 13.2066 1.27351L0 30.8855H5.25083L7.16022 26.587H23.0718L24.9812 30.8855H30.232L17.0254 1.27351C16.7072 0.47749 15.9116 -0.00012207 15.116 -0.00012207ZM9.22873 21.8108L15.116 8.5969L21.0033 21.8108H9.22873Z" fill="#26A3DD"/>
<path d="M77.9679 18.3076C77.9679 10.9842 72.2398 5.09368 65.2387 4.77527C65.0795 4.77527 64.9204 4.93447 65.0795 5.09368C65.0795 5.09368 65.0795 5.09368 65.0795 5.25288C65.5569 6.20811 66.6707 8.75537 68.8983 10.3474C71.6033 12.5763 73.1945 15.1235 73.1945 18.3076C73.1945 22.4469 70.0121 26.9046 64.9204 26.9046C59.6696 26.9046 56.6464 22.4469 56.6464 18.3076C56.6464 15.1235 58.2376 12.5763 60.9425 10.3474C63.011 8.59617 64.284 6.20811 64.7613 5.09368C64.9204 4.93447 64.7613 4.77527 64.6022 4.77527C57.442 4.93447 51.5547 10.9842 51.5547 18.3076C51.5547 24.3574 56.6464 31.3623 64.6022 31.3623C68.2619 31.3623 71.2851 30.2479 73.5127 28.3375L76.0585 30.7255H83.3779L76.695 24.3574C77.4906 22.6061 77.9679 20.5365 77.9679 18.3076Z" fill="#26A3DD"/>
<path d="M114.882 5.41199H109.949V30.8846H114.882V5.41199Z" fill="#26A3DD"/>
<path d="M100.401 18.1483C100.401 23.402 97.6957 26.5861 93.5587 26.5861C89.2626 26.5861 86.7167 23.402 86.7167 18.1483V5.41199H81.625V18.1483C81.625 25.9493 86.5576 31.5214 93.5587 31.5214C100.401 31.5214 105.492 25.9493 105.492 18.1483V5.41199H100.401V18.1483Z" fill="#26A3DD"/>
<path d="M139.069 5.41309V9.23398L138.114 8.27876C135.887 5.8907 133.182 4.61707 130.318 4.61707C126.976 4.61707 124.112 5.8907 121.884 8.43796C119.657 10.9852 118.543 14.1693 118.543 17.9902C118.543 21.8111 119.657 25.1544 121.884 27.7017C124.112 30.2489 126.976 31.5225 130.477 31.5225C133.182 31.5225 135.728 30.4081 138.114 28.1793L139.069 27.224V30.7265H144.002V5.41309H139.069ZM137.16 24.6768C135.727 26.428 133.659 27.224 131.272 27.224C129.045 27.224 127.135 26.2688 125.703 24.6768C124.271 22.9255 123.635 20.8559 123.635 18.1494C123.635 15.6021 124.43 13.5325 125.862 11.7812C127.294 10.03 129.204 9.23398 131.431 9.23398C133.818 9.23398 135.727 10.03 137.16 11.7812C138.592 13.5325 139.387 15.6021 139.387 18.3086C139.387 20.6967 138.751 22.9255 137.16 24.6768Z" fill="#26A3DD"/>
</svg>
