<?xml version="1.0" encoding="UTF-8" standalone="no"?>
<!-- Created with Inkscape (http://www.inkscape.org/) -->

<svg
   xmlns:dc="http://purl.org/dc/elements/1.1/"
   xmlns:cc="http://creativecommons.org/ns#"
   xmlns:rdf="http://www.w3.org/1999/02/22-rdf-syntax-ns#"
   xmlns:svg="http://www.w3.org/2000/svg"
   xmlns="http://www.w3.org/2000/svg"
   xmlns:sodipodi="http://sodipodi.sourceforge.net/DTD/sodipodi-0.dtd"
   xmlns:inkscape="http://www.inkscape.org/namespaces/inkscape"
   width="29.633329mm"
   height="6.3499999mm"
   viewBox="0 0 29.633329 6.3499999"
   version="1.1"
   id="svg1394"
   inkscape:version="0.92.5 (2060ec1f9f, 2020-04-08)"
   sodipodi:docname="acquia-logo.svg">
  <defs
     id="defs1388" />
  <sodipodi:namedview
     id="base"
     pagecolor="#ffffff"
     bordercolor="#666666"
     borderopacity="1.0"
     inkscape:pageopacity="0.0"
     inkscape:pageshadow="2"
     inkscape:zoom="5.6"
     inkscape:cx="60.253359"
     inkscape:cy="-12.761601"
     inkscape:document-units="mm"
     inkscape:current-layer="layer1"
     showgrid="false"
     inkscape:window-width="1920"
     inkscape:window-height="1049"
     inkscape:window-x="0"
     inkscape:window-y="0"
     inkscape:window-maximized="1" />
  <metadata
     id="metadata1391">
    <rdf:RDF>
      <cc:Work
         rdf:about="">
        <dc:format>image/svg+xml</dc:format>
        <dc:type
           rdf:resource="http://purl.org/dc/dcmitype/StillImage" />
        <dc:title></dc:title>
      </cc:Work>
    </rdf:RDF>
  </metadata>
  <g
     inkscape:label="Layer 1"
     inkscape:groupmode="layer"
     id="layer1"
     transform="translate(-69.850004,-113.15238)">
    <path
       d="m 98.099954,118.07542 c -0.32244,0.34654 -0.70728,0.48924 -1.20655,0.48924 -0.45766,0 -0.8529,-0.17327 -1.13374,-0.51983 -0.28083,-0.34654 -0.42646,-0.76444 -0.42646,-1.29445 0,-0.48925 0.14563,-0.90715 0.45766,-1.25369 0.31204,-0.34656 0.70729,-0.51983 1.13375,-0.51983 0.49926,0 0.89451,0.17327 1.17534,0.51983 0.28084,0.34654 0.45766,0.76444 0.45766,1.29445 0,0.50964 -0.13521,0.93773 -0.45766,1.28428 z m 0.39525,-3.03741 -0.21843,-0.21404 c -0.45765,-0.48925 -0.99852,-0.73387 -1.6018,-0.73387 -0.67608,0 -1.27936,0.24462 -1.70581,0.76445 -0.45765,0.48925 -0.67608,1.15176 -0.67608,1.88564 0,0.76445 0.24963,1.42697 0.67608,1.91621 0.45766,0.48925 1.07134,0.76445 1.74742,0.76445 0.57207,0 1.07133,-0.24463 1.56019,-0.66252 l 0.17683,-0.17329 v 0.7033 h 1.02973 v -5.05554 h -1.02973 v 0.80521 z m -7.97781,1.74294 c 0,1.04985 -0.53046,1.71237 -1.42497,1.71237 -0.89451,0 -1.42498,-0.66252 -1.42498,-1.71237 v -2.54815 h -1.02973 v 2.54815 c 0,1.52889 1.02973,2.65009 2.45471,2.65009 1.42498,0 2.45471,-1.111 2.45471,-2.65009 v -2.54815 h -1.02973 v 2.54815 z m 1.99705,2.5074 h 1.02973 v -5.05555 h -1.02973 z m -6.61522,-2.46663 c 0,-1.46773 -1.17536,-2.6195 -2.63154,-2.68065 -0.0312,0 -0.0728,0.0306 -0.0312,0.0713 0.10402,0.21405 0.35364,0.6931 0.7801,1.00908 0.57207,0.41789 0.89451,0.93772 0.89451,1.56965 0,0.80522 -0.64488,1.71237 -1.70582,1.71237 -1.07133,0 -1.70582,-0.90715 -1.70582,-1.71237 0,-0.63193 0.35366,-1.15176 0.89452,-1.56965 0.42645,-0.34656 0.70729,-0.79299 0.78011,-1.00704 0.0312,-0.0306 0,-0.0713 -0.0312,-0.0713 -1.49779,0.0306 -2.67314,1.1803 -2.67314,2.63784 0,1.18235 1.02972,2.57874 2.70435,2.57874 0.74888,0 1.38336,-0.21404 1.85143,-0.59117 l 0.53046,0.48925 h 1.49778 l -1.40417,-1.29447 c 0.14563,-0.30578 0.24964,-0.6931 0.24964,-1.14158 z m -14.12498,0.69311 1.20655,-2.61951 1.21695,2.61951 z m 1.17535,-4.36245 c -0.17683,0 -0.32244,0.10193 -0.39525,0.24462 l -1.64857,3.59137 -1.05577,2.29997 h 1.07133 l 0.39525,-0.83579 h 3.27641 l 0.39525,0.83579 h 1.07134 l -1.49748,-3.26475 -1.18606,-2.58582 c -0.0728,-0.17327 -0.24963,-0.28539 -0.42645,-0.28539 z m 5.6583,1.95699 c 0.45767,0 0.89451,0.17327 1.17536,0.44847 0.104,-0.31597 0.28084,-0.59117 0.49927,-0.87656 -0.45767,-0.34656 -1.02974,-0.56061 -1.67463,-0.56061 -1.49779,0.0102 -2.74594,1.20274 -2.74594,2.70105 0,1.46774 1.20656,2.68066 2.73554,2.68066 0.64489,0 1.20656,-0.21404 1.67461,-0.56059 -0.21842,-0.2752 -0.35364,-0.56059 -0.49926,-0.87656 -0.32243,0.2752 -0.70728,0.44847 -1.17535,0.44847 -0.95691,0 -1.74741,-0.76445 -1.74741,-1.71236 0.0104,-0.92752 0.7905,-1.69197 1.75781,-1.69197 z"
       id="path2"
       inkscape:connector-curvature="0"
       style="fill:#ffffff;fill-opacity:1;fill-rule:evenodd;stroke-width:0.26458332"
       sodipodi:nodetypes="sscscscssccscscscccccccccssccssscccccccccscccssscccssccccsccccsccccccccccsscccssccscs" />
  </g>
</svg>
