<?xml version="1.0" encoding="UTF-8"?>
<svg width="61px" height="40px" viewBox="0 0 61 40" version="1.1" xmlns="http://www.w3.org/2000/svg" xmlns:xlink="http://www.w3.org/1999/xlink">
    <!-- Generator: Sketch 53 (72520) - https://sketchapp.com -->
    <title>Logo_Normal</title>
    <desc>Created with Sketch.</desc>
    <g id="Symbols" stroke="none" stroke-width="1" fill="none" fill-rule="evenodd">
        <g id="Navigation/Roll/Menu-N2" transform="translate(-163.000000, -27.000000)">
            <g id="HEADER/Transparent/ss-Menu">
                <g>
                    <g id="Logotype" transform="translate(163.000000, 27.000000)">
                        <g id="Group-6">
                            <path d="M18.0334273,1.59976316 C18.1419912,1.4945 18.2441057,1.45213158 18.331978,1.45213158 C18.4894493,1.45213158 18.600163,1.5895 18.5950573,1.75713158 C18.5902203,1.85660526 18.5464185,1.96581579 18.4486035,2.06160526 C14.5351982,6.82607895 11.6891586,12.3942368 11.6891586,20.1192368 C11.6891586,27.8376579 14.5351982,33.2989737 18.4486035,38.0610789 C18.5464185,38.1571316 18.5902203,38.2681842 18.5950573,38.3658158 C18.600163,38.5313421 18.4894493,38.6710789 18.331978,38.6710789 C18.2441057,38.6710789 18.1419912,38.6284474 18.0334273,38.5226579 L1.36296035,22.7345 C0.530995595,22.0363421 0,21.2218684 0,20.0629211 C0,18.8989737 0.530995595,18.0866053 1.36296035,17.3939737 L18.0334273,1.59976316" id="Fill-1" fill="#C20016"></path>
                            <g id="Group-5" transform="translate(21.766520, 0.121053)" fill="#254F9B">
                                <path d="M9.08448546,0.141973684 C2.55721674,0.141973684 0.0056969163,9.20092105 0.0056969163,19.9982895 C0.0056969163,30.7982895 2.55721674,39.7367105 9.08448546,39.7367105 C13.0008467,39.7367105 16.3394546,37.4901316 16.3510097,35.6440789 C16.3518159,35.2406579 16.1935383,34.8530263 15.8468863,34.5148684 C13.9916264,32.7585526 13.2650009,31.0022368 13.2580141,29.4540789 C13.2475339,26.4967105 15.8681154,24.2927632 18.2823181,24.2927632 C21.603459,24.2927632 23.5616396,26.8496053 23.5616396,30.1588158 C23.5616396,33.2935526 22.1946485,35.9077632 20.7118379,37.9975 C20.6543313,38.0848684 20.6282652,38.1780263 20.6282652,38.2622368 C20.6301463,38.4272368 20.7271551,38.5614474 20.8749524,38.5614474 C20.9652432,38.5614474 21.0705824,38.5146053 21.1847894,38.4014474 L37.8600934,22.6132895 C38.6925956,21.9153947 39.2241286,21.1009211 39.2241286,19.9419737 C39.2241286,18.7780263 38.6925956,17.9653947 37.8600934,17.2727632 L21.1847894,1.47881579 C21.0705824,1.36697368 20.9652432,1.32013158 20.8749524,1.32013158 C20.7260802,1.32013158 20.6301463,1.45539474 20.6282652,1.61986842 C20.6282652,1.70460526 20.6543313,1.79855263 20.7118379,1.88618421 C22.1946485,3.97328947 23.5616396,6.59065789 23.5616396,9.72302632 C23.5616396,13.0298684 21.603459,15.5893421 18.2823181,15.5893421 C15.8681154,15.5893421 13.2475339,13.3869737 13.2580141,10.4285526 C13.2650009,8.87907895 13.9916264,7.12302632 15.8468863,5.36855263 C16.1935383,5.02697368 16.3518159,4.64223684 16.3510097,4.23881579 C16.3394546,2.39013158 13.0008467,0.141973684 9.08448546,0.141973684" id="Fill-3"></path>
                            </g>
                        </g>
                    </g>
                </g>
            </g>
        </g>
    </g>
</svg>