<svg xmlns="http://www.w3.org/2000/svg" width="374" height="319" viewBox="0 0 374 319">
  <g id="Group_2064" data-name="Group 2064" transform="translate(-10446 -7365)">
    <g id="Polygon_688" data-name="Polygon 688" transform="translate(10446 7365)" fill="none">
      <path d="M187,0,374,319H0Z" stroke="none"/>
      <path d="M 187 79.09524536132812 L 69.814453125 279 L 304.185546875 279 L 187 79.09524536132812 M 187 0 L 374 319 L 0 319 L 187 0 Z" stroke="none" fill="#fff"/>
    </g>
    <g id="Path_3304" data-name="Path 3304" transform="translate(10465 7382)" fill="none">
      <path d="M167.5,0,335,290H0Z" stroke="none"/>
      <path d="M 167.5 79.97557067871094 L 69.29623413085938 250 L 265.7037658691406 250 L 167.5 79.97557067871094 M 167.5 0 L 335 290 L 0 290 L 167.5 0 Z" stroke="none" fill="#000"/>
    </g>
    <g id="Path_3383" data-name="Path 3383" transform="translate(10563 7438)" fill="none">
      <path d="M102,0l25.365,43.766,12.523,21.608L204,176H0Z" stroke="none"/>
      <path d="M 102 79.77281951904297 L 69.41378784179688 136 L 134.5862121582031 136 L 102 79.77281951904297 M 102 0 L 204 176 L 0 176 L 102 0 Z" stroke="none" fill="#496bb8"/>
    </g>
    <line id="Line_13" data-name="Line 13" x1="146" y2="252" transform="translate(10516.5 7424.5)" fill="none" stroke="#fff" stroke-width="18"/>
    <line id="Line_14" data-name="Line 14" x1="232" transform="translate(10547.5 7622.88)" fill="none" stroke="#fff" stroke-width="18"/>
    <g id="Polygon_689" data-name="Polygon 689" transform="translate(10632 7518)" fill="none">
      <path d="M33,0,66,56H0Z" stroke="none"/>
      <path d="M 33 0 L 66 56 L 0 56 L 33 0 Z" stroke="none" fill="#fff"/>
    </g>
  </g>
</svg>
